# xmcd
#
# Track frame offsets:
#	150
#	16135
#	28950
#	45052
#	59932
#	71512
#	89277
#	105550
#	120745
#	137595
#	153340
#	165557
#	178142
#	192192
#	207057
#
# Disc length: 3000 seconds
#
# Revision: 2
# Processed by: cddbd v1.5.2PL0 Copyright (c) Steve Scherf et al.
# Submitted via: audiograbber 1.83.01
#
DISCID=c60bb60f
DTITLE=Various Artist - Stax Gold
DYEAR=1998
DGENRE=Soul
TTITLE0=Respect Yourself - The Staple Singers
TTITLE1=Who's Making Love - Johnnie Taylor
TTITLE2=Dedicated to the One I Love - The Temprees
TTITLE3=Theme from Shaft - Isaac Hayes
TTITLE4=Mr. Big Stuff - Jean Knight
TTITLE5=Woman to Woman - Shirley Brown
TTITLE6=What You See Is What You Get - The Dramatics
TTITLE7=I've Been Lonely for So Long - Frederick Knight
TTITLE8=I'll Play the Blues for You - Albert King
TTITLE9=Cheaper to Keep Her - Johnnie Taylor
TTITLE10=Private Number - Judy Clay and William Bell
TTITLE11=Holy Ghost - The Bar - Kays
TTITLE12=Show me How - The Emotions
TTITLE13=Time is Tight - Booker T. and the MGs
TTITLE14=Otis Redding - Try a Little Tenderness
EXTD=
EXTT0=
EXTT1=
EXTT2=
EXTT3=
EXTT4=
EXTT5=
EXTT6=
EXTT7=
EXTT8=
EXTT9=
EXTT10=
EXTT11=
EXTT12=
EXTT13=
EXTT14=
PLAYORDER=
